<?xml version="1.0" encoding="UTF-8" standalone="no"?>
<svg
   xmlns:dc="http://purl.org/dc/elements/1.1/"
   xmlns:cc="http://creativecommons.org/ns#"
   xmlns:rdf="http://www.w3.org/1999/02/22-rdf-syntax-ns#"
   xmlns:svg="http://www.w3.org/2000/svg"
   xmlns="http://www.w3.org/2000/svg"
   xmlns:xlink="http://www.w3.org/1999/xlink"
   xmlns:sodipodi="http://sodipodi.sourceforge.net/DTD/sodipodi-0.dtd"
   xmlns:inkscape="http://www.inkscape.org/namespaces/inkscape"
   height="32"
   width="32"
   version="1.1"
   id="svg2"
   inkscape:version="0.48.4 r9939"
   sodipodi:docname="application.svg"
   inkscape:export-filename="/home/julie-sainmont/git/deic/core/img/filetypes/application.png"
   inkscape:export-xdpi="90"
   inkscape:export-ydpi="90">
  <metadata
     id="metadata84">
    <rdf:RDF>
      <cc:Work
         rdf:about="">
        <dc:format>image/svg+xml</dc:format>
        <dc:type
           rdf:resource="http://purl.org/dc/dcmitype/StillImage" />
        <dc:title></dc:title>
      </cc:Work>
    </rdf:RDF>
  </metadata>
  <sodipodi:namedview
     pagecolor="#ffffff"
     bordercolor="#666666"
     borderopacity="1"
     objecttolerance="10"
     gridtolerance="10"
     guidetolerance="10"
     inkscape:pageopacity="0"
     inkscape:pageshadow="2"
     inkscape:window-width="1454"
     inkscape:window-height="909"
     id="namedview82"
     showgrid="false"
     inkscape:zoom="7.375"
     inkscape:cx="-7.8644068"
     inkscape:cy="16"
     inkscape:window-x="75"
     inkscape:window-y="34"
     inkscape:window-maximized="0"
     inkscape:current-layer="g72" />
  <defs
     id="defs4">
    <linearGradient
       id="linearGradient3869">
      <stop
         id="stop3871"
         offset="0"
         style="stop-color:#cfced4;stop-opacity:1" />
      <stop
         id="stop3873"
         offset="1"
         stop-opacity="0"
         style="stop-color:#9ea2a5;stop-opacity:1" />
    </linearGradient>
    <linearGradient
       x1="58.478409"
       y1="26.231985"
       gradientTransform="matrix(.64103 0 0 .64103 .61539 1.6154)"
       x2="24"
       gradientUnits="userSpaceOnUse"
       y2="3.899"
       id="linearGradient3857">
      <stop
         id="stop3859"
         offset="0"
         stop-color="#505050" />
      <stop
         id="stop3861"
         offset="1"
         stop-color="#8e8e8e"
         style="stop-color:#b3b3b3;stop-opacity:1" />
    </linearGradient>
    <linearGradient
       id="e"
       y2="25"
       xlink:href="#a"
       gradientUnits="userSpaceOnUse"
       x2="16"
       gradientTransform="matrix(1 0 0 -1 0 34.004)"
       y1="9"
       x1="16" />
    <linearGradient
       id="a">
      <stop
         offset="0"
         id="stop8" />
      <stop
         stop-opacity="0"
         offset="1"
         id="stop10" />
    </linearGradient>
    <linearGradient
       id="f"
       y2="25"
       xlink:href="#linearGradient3869"
       gradientUnits="userSpaceOnUse"
       x2="16"
       y1="9"
       x1="16" />
    <linearGradient
       id="g"
       y2="4.9969"
       gradientUnits="userSpaceOnUse"
       x2="19.927"
       gradientTransform="matrix(.66667 0 0 .66667 0.0000011 .33333)"
       y1="44.949"
       x1="19.927">
      <stop
         stop-color="#505050"
         offset="0"
         id="stop14" />
      <stop
         stop-color="#8e8e8e"
         offset="1"
         id="stop16"
         style="stop-color:#b3b3b3;stop-opacity:1" />
    </linearGradient>
    <linearGradient
       id="i"
       y2="43"
       gradientUnits="userSpaceOnUse"
       x2="24"
       gradientTransform="matrix(.62162 0 0 .62162 1.0811 2.0811)"
       y1="5"
       x1="24">
      <stop
         stop-color="#fff"
         offset="0"
         id="stop19" />
      <stop
         stop-color="#fff"
         stop-opacity=".23529"
         offset="0.07464547"
         id="stop21" />
      <stop
         stop-color="#fff"
         stop-opacity=".15686"
         offset=".95056"
         id="stop23" />
      <stop
         stop-color="#fff"
         stop-opacity=".39216"
         offset="1"
         id="stop25" />
    </linearGradient>
    <radialGradient
       id="b"
       gradientUnits="userSpaceOnUse"
       cy="8.4497995"
       cx="7.4956999"
       gradientTransform="matrix(1.2454e-8 1.4981 -1.5848 -2.76e-8 29.391 -6.3556)"
       r="20"
       fx="7.4956999"
       fy="8.4497995">
      <stop
         stop-color="#a6a6a6"
         offset="0"
         id="stop30"
         style="stop-color:#cbd576;stop-opacity:0.6090535" />
      <stop
         stop-color="#595959"
         offset="1"
         id="stop34"
         style="stop-color:#a2ad4c;stop-opacity:1" />
    </radialGradient>
    <linearGradient
       id="h"
       y2="3.899"
       gradientUnits="userSpaceOnUse"
       x2="24"
       gradientTransform="matrix(.64103 0 0 .64103 .61539 1.6154)"
       y1="26.231985"
       x1="58.478409">
      <stop
         stop-color="#505050"
         offset="0"
         id="stop37" />
      <stop
         stop-color="#8e8e8e"
         offset="1"
         id="stop39" />
    </linearGradient>
    <radialGradient
       id="d"
       gradientUnits="userSpaceOnUse"
       cy="43.5"
       cx="4.993"
       gradientTransform="matrix(2.0038 0 0 1.4 27.988 -17.4)"
       r="2.5">
      <stop
         stop-color="#181818"
         offset="0"
         id="stop42" />
      <stop
         stop-color="#181818"
         stop-opacity="0"
         offset="1"
         id="stop44" />
    </radialGradient>
    <radialGradient
       id="c"
       gradientUnits="userSpaceOnUse"
       cy="43.5"
       cx="4.993"
       gradientTransform="matrix(2.0038 0 0 1.4 -20.012 -104.4)"
       r="2.5">
      <stop
         stop-color="#181818"
         offset="0"
         id="stop47" />
      <stop
         stop-color="#181818"
         stop-opacity="0"
         offset="1"
         id="stop49" />
    </radialGradient>
    <linearGradient
       id="j"
       y2="39.999"
       gradientUnits="userSpaceOnUse"
       x2="25.058"
       y1="47.028"
       x1="25.058">
      <stop
         stop-color="#181818"
         stop-opacity="0"
         offset="0"
         id="stop52" />
      <stop
         stop-color="#181818"
         offset=".5"
         id="stop54" />
      <stop
         stop-color="#181818"
         stop-opacity="0"
         offset="1"
         id="stop56" />
    </linearGradient>
    <linearGradient
       inkscape:collect="always"
       xlink:href="#linearGradient3857"
       id="linearGradient3855"
       gradientUnits="userSpaceOnUse"
       gradientTransform="matrix(.64103 0 0 .64103 .61539 1.6154)"
       x1="55.728596"
       y1="41.673237"
       x2="24"
       y2="3.899" />
  </defs>
  <g
     transform="matrix(0.7 0 0 .33333 -0.8 15.333)"
     id="g58">
    <g
       opacity=".4"
       transform="matrix(1.0526 0 0 1.2857 -1.2632 -13.429)"
       id="g60">
      <rect
         height="7"
         width="5"
         y="40"
         x="38"
         fill="url(#d)"
         id="rect62" />
      <rect
         transform="scale(-1)"
         height="7"
         width="5"
         y="-47"
         x="-10"
         fill="url(#c)"
         id="rect64" />
      <rect
         height="7"
         width="28"
         y="40"
         x="10"
         fill="url(#j)"
         id="rect66" />
    </g>
  </g>
  <rect
     height="25"
     style="color:#000000;stroke:url(#linearGradient3855);fill:url(#b)"
     rx="2"
     ry="2"
     width="25"
     y="4.5"
     x="3.5"
     id="rect68"
     stroke-linejoin="round"
     stroke-linecap="round"
     stroke="url(#h)"
     fill="url(#b)" />
  <rect
     opacity=".5"
     stroke-linejoin="round"
     rx="1"
     ry="1"
     height="23"
     width="23"
     stroke="url(#i)"
     stroke-linecap="round"
     y="5.5"
     x="4.5"
     fill="none"
     id="rect70"
     style="stroke:url(#i)" />
  <g
     id="g72">
    <path
       style="color:#000000"
       d="m15 10c-0.277 0-0.5 0.223-0.5 0.5v1.6875c-0.54864 0.14074-1.055 0.37601-1.5312 0.65625l-1.219-1.219c-0.19587-0.19587-0.49163-0.19587-0.6875 0l-1.437 1.437c-0.19587 0.19587-0.19587 0.49163 0 0.6875l1.2188 1.2188c-0.28 0.476-0.516 0.982-0.656 1.531h-1.688c-0.277 0-0.5 0.223-0.5 0.5v2c0 0.277 0.223 0.5 0.5 0.5h1.6875c0.14074 0.54864 0.37601 1.055 0.65625 1.5312l-1.219 1.219c-0.19587 0.19587-0.19587 0.49163 0 0.6875l1.4375 1.4375c0.19587 0.19587 0.49163 0.19587 0.6875 0l1.2188-1.2188c0.47623 0.28024 0.98261 0.51551 1.5312 0.65625v1.6875c0 0.277 0.223 0.5 0.5 0.5h2c0.277 0 0.5-0.223 0.5-0.5v-1.6875c0.54864-0.14074 1.055-0.37601 1.5312-0.65625l1.219 1.219c0.19587 0.19587 0.49163 0.19587 0.6875 0l1.4375-1.4375c0.19587-0.19587 0.19587-0.49163 0-0.6875l-1.22-1.219c0.28-0.476 0.516-0.982 0.656-1.531h1.6875c0.277 0 0.5-0.223 0.5-0.5v-2c0-0.277-0.223-0.5-0.5-0.5h-1.6875c-0.14-0.549-0.376-1.055-0.656-1.531l1.219-1.219c0.19587-0.19587 0.19587-0.49163 0-0.6875l-1.437-1.437c-0.19587-0.19587-0.49163-0.19587-0.6875 0l-1.2188 1.2188c-0.476-0.28-0.982-0.516-1.531-0.656v-1.688c0-0.277-0.223-0.5-0.5-0.5h-2zm1 5c1.6569 0 3 1.3431 3 3s-1.3431 3-3 3-3-1.3431-3-3 1.3431-3 3-3z"
       id="path74"
       fill="#fff"
       opacity="0.41" />
    <path
       style="color:#000000"
       d="m15 9c-0.277 0-0.5 0.223-0.5 0.5v1.6875c-0.54864 0.14074-1.055 0.37601-1.5312 0.65625l-1.219-1.219c-0.19587-0.19587-0.49163-0.19587-0.6875 0l-1.437 1.437c-0.19587 0.19587-0.19587 0.49163 0 0.6875l1.2188 1.2188c-0.28 0.476-0.516 0.982-0.656 1.531h-1.688c-0.277 0-0.5 0.223-0.5 0.5v2c0 0.277 0.223 0.5 0.5 0.5h1.6875c0.14074 0.54864 0.37601 1.055 0.65625 1.5312l-1.219 1.219c-0.19587 0.19587-0.19587 0.49163 0 0.6875l1.4375 1.4375c0.19587 0.19587 0.49163 0.19587 0.6875 0l1.2188-1.2188c0.47623 0.28024 0.98261 0.51551 1.5312 0.65625v1.6875c0 0.277 0.223 0.5 0.5 0.5h2c0.277 0 0.5-0.223 0.5-0.5v-1.6875c0.54864-0.14074 1.055-0.37601 1.5312-0.65625l1.219 1.219c0.19587 0.19587 0.49163 0.19587 0.6875 0l1.4375-1.4375c0.19587-0.19587 0.19587-0.49163 0-0.6875l-1.22-1.219c0.28-0.476 0.516-0.982 0.656-1.531h1.6875c0.277 0 0.5-0.223 0.5-0.5v-2c0-0.277-0.223-0.5-0.5-0.5h-1.6875c-0.14-0.549-0.376-1.055-0.656-1.531l1.219-1.219c0.19587-0.19587 0.19587-0.49163 0-0.6875l-1.437-1.437c-0.19587-0.19587-0.49163-0.19587-0.6875 0l-1.2188 1.2188c-0.476-0.28-0.982-0.516-1.531-0.656v-1.688c0-0.277-0.223-0.5-0.5-0.5h-2zm1 5c1.6569 0 3 1.3431 3 3s-1.3431 3-3 3-3-1.3431-3-3 1.3431-3 3-3z"
       id="path76"
       fill="url(#g)" />
    <path
       style="opacity:0.1;color:#000000;fill:none;stroke:url(#f);stroke-linejoin:round"
       d="m 15.062,9.5625 c -0.02465,0.61514 0.0508,1.2431 -0.0404,1.8499 -0.22156,0.48267 -0.86813,0.38946 -1.2591,0.66131 -0.35888,0.1777 -0.83286,0.55716 -1.2005,0.17633 l -1.1562,-1.1562 -1.3125,1.3125 c 0.41328,0.43651 0.87815,0.8308 1.2579,1.2948 0.23668,0.48316 -0.28717,0.88122 -0.39325,1.3266 -0.17191,0.37402 -0.17866,1.0023 -0.7161,1.0335 -0.55991,0.0032 -1.1199,4.78e-4 -1.6798,0.0014 v 1.875 c 0.61514,0.02465 1.2431,-0.0508 1.8499,0.0404 0.48267,0.22156 0.38946,0.86813 0.66131,1.2591 0.1777,0.35888 0.55716,0.83286 0.17633,1.2005 l -1.1562,1.1562 1.3125,1.3125 c 0.43651,-0.41328 0.8308,-0.87815 1.2948,-1.2579 0.48316,-0.23668 0.88122,0.28717 1.3266,0.39325 0.37402,0.17191 1.0023,0.17866 1.0335,0.7161 0.0032,0.55991 4.78e-4,1.1199 0.0014,1.6798 h 1.875 c 0.02465,-0.61514 -0.0508,-1.2431 0.0404,-1.8499 0.22156,-0.48267 0.86813,-0.38946 1.2591,-0.66131 0.35888,-0.1777 0.83286,-0.55716 1.2005,-0.17633 l 1.1562,1.1562 1.3125,-1.3125 c -0.41328,-0.43651 -0.87815,-0.8308 -1.2579,-1.2948 -0.23668,-0.48316 0.28717,-0.88122 0.39325,-1.3266 0.17191,-0.37402 0.17866,-1.0023 0.7161,-1.0335 0.55991,-0.0032 1.1199,-4.78e-4 1.6798,-0.0014 v -1.875 c -0.61514,-0.02465 -1.2431,0.0508 -1.8499,-0.0404 -0.482,-0.222 -0.389,-0.869 -0.661,-1.26 -0.177,-0.359 -0.557,-0.833 -0.176,-1.201 l 1.1562,-1.1562 -1.3125,-1.3125 c -0.43651,0.41328 -0.8308,0.87815 -1.2948,1.2579 -0.48316,0.23668 -0.88122,-0.28717 -1.3266,-0.39325 -0.37402,-0.17191 -1.0023,-0.17866 -1.0335,-0.7161 -0.0032,-0.55991 -4.78e-4,-1.1199 -0.0014,-1.6798 h -1.875 z"
       id="path78"
       inkscape:connector-curvature="0" />
    <path
       style="color:#000000"
       d="m16 20.566c1.9374 0.05315 3.6634-1.7201 3.5613-3.6545 0.004-1.9389-1.8147-3.6163-3.7447-3.4659-1.9392 0.04516-3.5671 1.9074-3.3688 3.832 0.10413 1.8114 1.739 3.3229 3.5521 3.2884z"
       id="path80"
       stroke-linejoin="round"
       stroke="url(#e)"
       fill="none"
       opacity=".1" />
  </g>
</svg>
