<?xml version="1.0" encoding="UTF-8" standalone="no"?>
<svg
   xmlns:dc="http://purl.org/dc/elements/1.1/"
   xmlns:cc="http://creativecommons.org/ns#"
   xmlns:rdf="http://www.w3.org/1999/02/22-rdf-syntax-ns#"
   xmlns:svg="http://www.w3.org/2000/svg"
   xmlns="http://www.w3.org/2000/svg"
   xmlns:sodipodi="http://sodipodi.sourceforge.net/DTD/sodipodi-0.dtd"
   xmlns:inkscape="http://www.inkscape.org/namespaces/inkscape"
   height="32"
   width="32"
   version="1.1"
   id="svg2"
   inkscape:version="0.48.4 r9939"
   sodipodi:docname="musicNote_DeicTheme.svg">
  <metadata
     id="metadata14">
    <rdf:RDF>
      <cc:Work
         rdf:about="">
        <dc:format>image/svg+xml</dc:format>
        <dc:type
           rdf:resource="http://purl.org/dc/dcmitype/StillImage" />
      </cc:Work>
    </rdf:RDF>
  </metadata>
  <defs
     id="defs12" />
  <sodipodi:namedview
     pagecolor="#ffffff"
     bordercolor="#666666"
     borderopacity="1"
     objecttolerance="10"
     gridtolerance="10"
     guidetolerance="10"
     inkscape:pageopacity="0"
     inkscape:pageshadow="2"
     inkscape:window-width="1243"
     inkscape:window-height="1028"
     id="namedview10"
     showgrid="false"
     inkscape:zoom="7.375"
     inkscape:cx="16"
     inkscape:cy="16"
     inkscape:window-x="75"
     inkscape:window-y="34"
     inkscape:window-maximized="0"
     inkscape:current-layer="g4" />
  <g
     transform="translate(581.71 -2.0765)"
     id="g4">
    <path
       d="m-554.99 2.0786c-4.7142 0.75967-11.023 1.5417-15.724 2.3438-1.2449 0.60738-0.96502 2.1714-1.0201 3.3062v15.192c-2.6235-0.49322-5.8227 1.6745-5.9615 5.1068-0.2265 2.1369 1.6684 3.9969 3.729 4.0469 3.6893 0.08956 6.2126-2.3582 6.2526-5.4537-0.0402-5.1988 0.012-10.4 0-15.599 0.57116-0.0423 9.222-1.693 10-1.8029v11.683c-2.2928-0.54927-5.2238 0.95744-5.9505 4.0345-0.30674 1.7248 0.273 3.8897 2.0231 4.62 3.4164 1.5699 8.1065-1.6101 7.9158-5.3421-0.053-6.9323 0.0434-13.868 0-20.801-0.0898-0.65152-0.53122-1.3812-1.2641-1.3342z"
       id="path6"
       style="fill:#8d982e;fill-opacity:1" />
    <path
       d="m-554.99 3.0786c-4.7142 0.75967-11.023 1.5417-15.724 2.3438-1.2449 0.60738-0.96502 2.1714-1.0201 3.3062v15.192c-2.6235-0.49322-5.8227 1.6745-5.9615 5.1068-0.2265 2.1369 1.6684 3.9969 3.729 4.0469 3.6893 0.08956 6.2126-2.3582 6.2526-5.4537-0.0402-5.1988 0.012-10.4 0-15.599 0.57116-0.0423 9.222-1.693 10-1.8029v11.683c-2.2928-0.54927-5.2238 0.95744-5.9505 4.0345-0.30674 1.7248 0.273 3.8897 2.0231 4.62 3.4164 1.5699 8.1065-1.6101 7.9158-5.3421-0.053-6.9323 0.0434-13.868 0-20.801-0.0898-0.65152-0.53122-1.3812-1.2641-1.3342z"
       fill="#fff"
       id="path8"
       style="fill:#b8c747;fill-opacity:1" />
  </g>
</svg>
