<?xml version="1.0" encoding="UTF-8" standalone="no"?>
<!-- Created with Inkscape (http://www.inkscape.org/) -->

<svg
   xmlns:dc="http://purl.org/dc/elements/1.1/"
   xmlns:cc="http://creativecommons.org/ns#"
   xmlns:rdf="http://www.w3.org/1999/02/22-rdf-syntax-ns#"
   xmlns:svg="http://www.w3.org/2000/svg"
   xmlns="http://www.w3.org/2000/svg"
   xmlns:sodipodi="http://sodipodi.sourceforge.net/DTD/sodipodi-0.dtd"
   xmlns:inkscape="http://www.inkscape.org/namespaces/inkscape"
   width="420"
   height="110"
   id="svg2469"
   sodipodi:version="0.32"
   inkscape:version="0.48.4 r9939"
   sodipodi:docname="logo-Deic-data.svg"
   inkscape:output_extension="org.inkscape.output.svg.inkscape"
   version="1.0">
  <sodipodi:namedview
     id="base"
     pagecolor="#ffffff"
     bordercolor="#666666"
     borderopacity="1.0"
     gridtolerance="10000"
     guidetolerance="10"
     objecttolerance="10"
     inkscape:pageopacity="0.0"
     inkscape:pageshadow="2"
     inkscape:zoom="1.4142136"
     inkscape:cx="149.56573"
     inkscape:cy="-4.7069202"
     inkscape:document-units="px"
     inkscape:current-layer="layer1"
     showgrid="false"
     inkscape:window-width="1091"
     inkscape:window-height="914"
     inkscape:window-x="246"
     inkscape:window-y="75"
     inkscape:window-maximized="0" />
  <defs
     id="defs2471">
    <inkscape:perspective
       id="perspective2477"
       inkscape:persp3d-origin="372.04724 : 350.78739 : 1"
       inkscape:vp_z="744.09448 : 526.18109 : 1"
       inkscape:vp_y="0 : 1000 : 0"
       inkscape:vp_x="0 : 526.18109 : 1"
       sodipodi:type="inkscape:persp3d" />
    <inkscape:perspective
       sodipodi:type="inkscape:persp3d"
       inkscape:vp_x="0 : 526.18109 : 1"
       inkscape:vp_y="0 : 1000 : 0"
       inkscape:vp_z="744.09448 : 526.18109 : 1"
       inkscape:persp3d-origin="372.04724 : 350.78739 : 1"
       id="perspective2486" />
    <inkscape:perspective
       sodipodi:type="inkscape:persp3d"
       inkscape:vp_x="0 : 15.999964 : 1"
       inkscape:vp_y="0 : 1000 : 0"
       inkscape:vp_z="77.121002 : 15.999964 : 1"
       inkscape:persp3d-origin="38.560501 : 10.666643 : 1"
       id="perspective2592" />
  </defs>
  <metadata
     id="metadata2474">
    <rdf:RDF>
      <cc:Work
         rdf:about="">
        <dc:format>image/svg+xml</dc:format>
        <dc:type
           rdf:resource="http://purl.org/dc/dcmitype/StillImage" />
        <dc:title />
      </cc:Work>
    </rdf:RDF>
  </metadata>
  <g
     transform="matrix(0.75,0,0,0.75,-190.55967,-263.77163)"
     id="layer1"
     inkscape:groupmode="layer"
     inkscape:label="Layer 1">
    <g
       style="font-size:50.82875824px;font-style:normal;font-weight:normal;fill:#b7c745;fill-opacity:1;stroke:none;font-family:Bitstream Vera Sans"
       id="text2596"
       transform="matrix(3.3111,0,0,3.3111,-595.06168,-1149.7778)">
      <path
         d="m 377.95947,486.19002 0,-6.70106 4.02064,0 0,17.37807 -4.02064,0 0,-1.80928 c -0.55098,0.73712 -1.1578,1.27692 -1.82045,1.61942 -0.66267,0.3425 -1.42957,0.51375 -2.3007,0.51375 -1.54125,0 -2.807,-0.61054 -3.79726,-1.83162 -0.99027,-1.22853 -1.48541,-2.807 -1.4854,-4.73542 -10e-6,-1.9284 0.49513,-3.50315 1.4854,-4.72424 0.99026,-1.22852 2.25601,-1.84278 3.79726,-1.84279 0.86369,10e-6 1.62686,0.17498 2.28953,0.52491 0.6701,0.34251 1.28064,0.8786 1.83162,1.60826 m -2.63575,8.09711 c 0.85624,0 1.50773,-0.31271 1.95448,-0.93815 0.45417,-0.62543 0.68126,-1.53379 0.68127,-2.7251 -1e-5,-1.19129 -0.2271,-2.09965 -0.68127,-2.72509 -0.44675,-0.62542 -1.09824,-0.93814 -1.95448,-0.93815 -0.8488,10e-6 -1.5003,0.31273 -1.95447,0.93815 -0.44674,0.62544 -0.67011,1.5338 -0.67011,2.72509 0,1.19131 0.22337,2.09967 0.67011,2.7251 0.45417,0.62544 1.10567,0.93815 1.95447,0.93815"
         style="font-size:22.87294006px;font-variant:normal;font-weight:bold;font-stretch:normal;fill:#b7c745;fill-opacity:1;font-family:Verdana;-inkscape-font-specification:Verdana Bold"
         id="path2991"
         inkscape:connector-curvature="0" />
      <path
         d="m 391.45093,491.23815 c -0.83391,0 -1.46307,0.14147 -1.88746,0.4244 -0.41696,0.28294 -0.62544,0.69989 -0.62543,1.25086 -10e-6,0.50631 0.16752,0.90465 0.50258,1.19502 0.34249,0.28294 0.81528,0.42441 1.41839,0.4244 0.752,1e-5 1.38487,-0.26804 1.89863,-0.80412 0.51374,-0.54353 0.77061,-1.22108 0.77062,-2.03266 l 0,-0.4579 -2.07733,0 m 6.10913,-1.50774 0,7.13662 -4.0318,0 0,-1.85395 c -0.53609,0.75945 -1.13919,1.31415 -1.80929,1.66409 -0.67011,0.3425 -1.4854,0.51375 -2.44588,0.51375 -1.29554,0 -2.3491,-0.376 -3.16067,-1.12801 -0.80412,-0.75945 -1.20619,-1.74227 -1.20619,-2.94847 0,-1.46678 0.50258,-2.54267 1.50774,-3.22767 1.0126,-0.68499 2.59852,-1.02749 4.75775,-1.0275 l 2.35654,0 0,-0.31271 c -10e-6,-0.63287 -0.24944,-1.0945 -0.74828,-1.38489 -0.49887,-0.29781 -1.27694,-0.44673 -2.33421,-0.44674 -0.85625,1e-5 -1.65293,0.0856 -2.39004,0.25688 -0.73712,0.17126 -1.42212,0.42813 -2.05499,0.77062 l 0,-3.04898 c 0.85624,-0.20847 1.71621,-0.36482 2.57991,-0.46908 0.86368,-0.11167 1.72737,-0.16751 2.59107,-0.16752 2.25601,10e-6 3.88288,0.44675 4.8806,1.34021 1.00515,0.88604 1.50773,2.33049 1.50774,4.33335"
         style="font-size:22.87294006px;font-variant:normal;font-weight:bold;font-stretch:normal;fill:#b7c745;fill-opacity:1;font-family:Verdana;-inkscape-font-specification:Verdana Bold"
         id="path2993"
         inkscape:connector-curvature="0" />
      <path
         d="m 405.66834,480.80684 0,3.55156 4.12115,0 0,2.85911 -4.12115,0 0,5.30501 c -10e-6,0.58076 0.1154,0.97538 0.34622,1.18385 0.23081,0.20103 0.68871,0.30155 1.37372,0.30155 l 2.05499,0 0,2.85911 -3.42871,0 c -1.57847,0 -2.69904,-0.3276 -3.36169,-0.98282 -0.65522,-0.66266 -0.98283,-1.78322 -0.98283,-3.36169 l 0,-5.30501 -1.98798,0 0,-2.85911 1.98798,0 0,-3.55156 3.9983,0"
         style="font-size:22.87294006px;font-variant:normal;font-weight:bold;font-stretch:normal;fill:#b7c745;fill-opacity:1;font-family:Verdana;-inkscape-font-specification:Verdana Bold"
         id="path2995"
         inkscape:connector-curvature="0" />
      <path
         d="m 417.8531,491.23815 c -0.83392,0 -1.46307,0.14147 -1.88747,0.4244 -0.41696,0.28294 -0.62543,0.69989 -0.62543,1.25086 0,0.50631 0.16752,0.90465 0.50258,1.19502 0.34249,0.28294 0.81529,0.42441 1.41839,0.4244 0.752,1e-5 1.38488,-0.26804 1.89863,-0.80412 0.51374,-0.54353 0.77061,-1.22108 0.77062,-2.03266 l 0,-0.4579 -2.07732,0 m 6.10913,-1.50774 0,7.13662 -4.03181,0 0,-1.85395 c -0.53609,0.75945 -1.13918,1.31415 -1.80928,1.66409 -0.67011,0.3425 -1.48541,0.51375 -2.44589,0.51375 -1.29554,0 -2.34909,-0.376 -3.16066,-1.12801 -0.80413,-0.75945 -1.20619,-1.74227 -1.20619,-2.94847 0,-1.46678 0.50258,-2.54267 1.50774,-3.22767 1.0126,-0.68499 2.59851,-1.02749 4.75775,-1.0275 l 2.35653,0 0,-0.31271 c -1e-5,-0.63287 -0.24943,-1.0945 -0.74828,-1.38489 -0.49886,-0.29781 -1.27693,-0.44673 -2.3342,-0.44674 -0.85625,1e-5 -1.65293,0.0856 -2.39005,0.25688 -0.73711,0.17126 -1.42211,0.42813 -2.05499,0.77062 l 0,-3.04898 c 0.85625,-0.20847 1.71622,-0.36482 2.57991,-0.46908 0.86369,-0.11167 1.72738,-0.16751 2.59108,-0.16752 2.25601,10e-6 3.88288,0.44675 4.8806,1.34021 1.00514,0.88604 1.50772,2.33049 1.50774,4.33335"
         style="font-size:22.87294006px;font-variant:normal;font-weight:bold;font-stretch:normal;fill:#b7c745;fill-opacity:1;font-family:Verdana;-inkscape-font-specification:Verdana Bold"
         id="path2997"
         inkscape:connector-curvature="0" />
    </g>
    <text
       transform="translate(264.07956,469.36218)"
       id="text2620"
       y="138.5"
       x="43.5"
       style="font-size:40px;font-style:normal;font-weight:normal;fill:#000000;fill-opacity:1;stroke:none;font-family:Bitstream Vera Sans"
       xml:space="preserve"><tspan
         y="138.5"
         x="43.5"
         id="tspan2622"
         sodipodi:role="line" /></text>
    <path
       inkscape:connector-curvature="0"
       id="path3012"
       d="m 366.15387,396.53856 c -8.88529,-14.07524 -27.22452,-25.8957 -48.27057,-31.11273 -5.15342,-1.2774 -21.4547,-2.32424 -36.22491,-2.32628 -17.79996,-0.003 -24.26789,-0.4976 -19.18223,-1.46929 4.22013,-0.80602 17.63415,-1.51533 29.80892,-1.57613 34.77726,-0.17327 57.26996,7.37968 73.43359,24.65992 l 8.7721,9.37805 8.25303,-2.87483 c 8.2367,-2.86913 35.08077,-2.7413 41.96866,0.19992 2.28852,0.97712 3.64049,-0.57582 5.55722,-6.38348 2.7778,-8.41678 11.20864,-18.06333 19.56264,-22.38333 13.67237,-7.07023 33.19971,-4.91625 44.37383,4.89475 l 6.28895,5.52182 13.34756,-6.52515 c 22.95276,-11.22068 46.16361,-12.2017 67.31546,-2.84531 12.28294,5.43335 9.88063,6.40247 -4.11211,1.65898 -21.98458,-7.45262 -51.05814,-2.23565 -70.59803,12.66816 l -6.40513,4.88546 -5.45518,-5.69403 c -11.69344,-12.20534 -30.97682,-14.46872 -44.50348,-5.22354 -7.16109,4.89447 -14.00925,16.14525 -14.00925,23.0156 0,6.4598 -4.40925,7.74631 -14.64212,4.27206 -11.38196,-3.8642 -28.15935,-3.55043 -40.64018,0.7601 l -10.20414,3.52424 -4.43463,-7.02485 0,0 z"
       style="fill:#b7c745;fill-opacity:1"
       sodipodi:nodetypes="cssccscscssscsssscssscscccc" />
    <path
       inkscape:connector-curvature="0"
       id="path3079"
       d="m 530.46079,494.53911 c -14.2486,-5.08648 -23.3611,-13.1404 -30.60514,-27.04973 -25.51107,-48.98398 29.3904,-100.18353 77.31247,-72.09936 8.68634,5.09057 18.67339,15.64079 17.66617,18.66246 -0.33643,1.00878 -4.50145,4.04149 -9.25596,6.73923 l -8.64446,4.90499 -5.86603,-5.86603 c -11.55795,-11.55789 -30.2615,-12.3543 -42.28171,-1.80046 -8.57667,7.53048 -12.14609,14.69433 -12.14609,24.37769 0,15.4922 12.06244,29.4849 27.58967,32.00459 8.73175,1.41701 22.77559,-3.671 27.81456,-10.07701 2.00942,-2.5546 4.14153,-4.64479 4.73796,-4.64479 2.67335,0 18.50473,10.73244 18.50473,12.54475 0,3.40452 -13.88984,15.573 -22.96221,20.11641 -11.87768,5.94844 -28.84467,6.83487 -41.86396,2.18726 z m -271.34153,0.52386 c -0.79122,-0.81593 -1.43862,-17.7404 -1.43862,-37.60992 l 0,-36.12647 11.50933,0 11.50927,0 0,27.10155 0,27.10143 15.07843,-0.8728 c 25.08689,-1.45228 35.43466,-10.90047 35.43466,-32.35419 0,-9.15864 -0.92504,-12.35638 -5.19326,-17.95225 -8.08375,-10.59832 -11.19687,-11.5674 -40.52427,-12.61484 l -26.85509,-0.95911 -0.57994,-10.07062 -0.57992,-10.07062 27.84242,0 c 23.31402,0 29.54101,0.63545 38.28567,3.90724 12.19707,4.56354 24.31504,16.54441 28.22389,27.90468 3.74402,10.88119 3.37152,30.74665 -0.77821,41.50642 -4.14811,10.75542 -18.47003,24.47902 -29.36407,28.13734 -8.34066,2.80086 -60.34126,5.27096 -62.57057,2.97216 l 0,0 z m 126.12286,-1.94247 c -19.20953,-9.99074 -27.25615,-32.53755 -18.434,-51.65263 6.65539,-14.42027 19.51986,-22.05953 37.14811,-22.05953 20.63234,0 36.76347,14.03972 39.13466,34.06072 l 1.19125,10.05836 -29.99956,0 c -17.5398,0 -29.99952,0.75223 -29.99952,1.81124 0,0.99615 1.9706,4.10225 4.37925,6.90243 3.15113,3.66336 6.80714,5.36488 13.03625,6.067 7.37265,0.83101 9.55434,0.22063 14.70559,-4.11376 l 6.04864,-5.08959 8.2497,4.16084 c 4.53736,2.28852 8.61281,4.48979 9.05655,4.89176 1.73169,1.56878 -8.87699,10.99632 -16.15261,14.35427 -9.73181,4.49148 -30.2722,4.81753 -38.36431,0.60889 z m 35.48705,-46.5598 c 0,-4.51781 -8.5292,-8.92929 -17.26398,-8.92929 -8.73478,0 -17.26397,4.41148 -17.26397,8.92929 0,0.8915 7.76879,1.62098 17.26397,1.62098 9.49519,0 17.26398,-0.72948 17.26398,-1.62098 z m 36.44615,12.26684 0,-37.50096 11.5507,0 11.55077,0 -0.52097,36.92572 -0.52096,36.92566 -11.02977,0.57529 -11.02973,0.57524 0,-37.50095 z m 0,-57.64224 0,-10.55017 11.50928,0 11.50932,0 0,10.55017 0,10.55018 -11.50932,0 -11.50928,0 z"
       style="fill:#767776;fill-opacity:1"
       sodipodi:nodetypes="csscscsssssssscccscccccsssscccsssssccccssscssssscscsccsssssccccccccccccccccccc" />
  </g>
</svg>
