<?xml version="1.0" encoding="UTF-8" standalone="no"?>
<!-- Created with Inkscape (http://www.inkscape.org/) -->

<svg
   xmlns:dc="http://purl.org/dc/elements/1.1/"
   xmlns:cc="http://creativecommons.org/ns#"
   xmlns:rdf="http://www.w3.org/1999/02/22-rdf-syntax-ns#"
   xmlns:svg="http://www.w3.org/2000/svg"
   xmlns="http://www.w3.org/2000/svg"
   xmlns:sodipodi="http://sodipodi.sourceforge.net/DTD/sodipodi-0.dtd"
   xmlns:inkscape="http://www.inkscape.org/namespaces/inkscape"
   width="108"
   height="24"
   id="svg2469"
   sodipodi:version="0.32"
   inkscape:version="0.48.4 r9939"
   sodipodi:docname="logo-wide-black.svg"
   inkscape:output_extension="org.inkscape.output.svg.inkscape"
   version="1.0">
  <sodipodi:namedview
     id="base"
     pagecolor="#ffffff"
     bordercolor="#666666"
     borderopacity="1.0"
     gridtolerance="10000"
     guidetolerance="10"
     objecttolerance="10"
     inkscape:pageopacity="0.0"
     inkscape:pageshadow="2"
     inkscape:zoom="5.6568542"
     inkscape:cx="56.227638"
     inkscape:cy="-4.7069202"
     inkscape:document-units="px"
     inkscape:current-layer="layer1"
     showgrid="false"
     inkscape:window-width="867"
     inkscape:window-height="715"
     inkscape:window-x="419"
     inkscape:window-y="96"
     inkscape:window-maximized="0" />
  <defs
     id="defs2471">
    <inkscape:perspective
       id="perspective2477"
       inkscape:persp3d-origin="372.04724 : 350.78739 : 1"
       inkscape:vp_z="744.09448 : 526.18109 : 1"
       inkscape:vp_y="0 : 1000 : 0"
       inkscape:vp_x="0 : 526.18109 : 1"
       sodipodi:type="inkscape:persp3d" />
    <inkscape:perspective
       sodipodi:type="inkscape:persp3d"
       inkscape:vp_x="0 : 526.18109 : 1"
       inkscape:vp_y="0 : 1000 : 0"
       inkscape:vp_z="744.09448 : 526.18109 : 1"
       inkscape:persp3d-origin="372.04724 : 350.78739 : 1"
       id="perspective2486" />
    <inkscape:perspective
       sodipodi:type="inkscape:persp3d"
       inkscape:vp_x="0 : 15.999964 : 1"
       inkscape:vp_y="0 : 1000 : 0"
       inkscape:vp_z="77.121002 : 15.999964 : 1"
       inkscape:persp3d-origin="38.560501 : 10.666643 : 1"
       id="perspective2592" />
  </defs>
  <metadata
     id="metadata2474">
    <rdf:RDF>
      <cc:Work
         rdf:about="">
        <dc:format>image/svg+xml</dc:format>
        <dc:type
           rdf:resource="http://purl.org/dc/dcmitype/StillImage" />
        <dc:title />
      </cc:Work>
    </rdf:RDF>
  </metadata>
  <g
     transform="scale(0.75) translate(-254.07956,-466.36218)"
     id="layer1"
     inkscape:groupmode="layer"
     inkscape:label="Layer 1">
    <path
       style="fill:#1a1a1a"
       d="m 316.87463,496.85766 c -3.10019,-1.10671 -5.08287,-2.85907 -6.65902,-5.88544 -5.55066,-10.65786 6.39472,-21.79778 16.82153,-15.68727 1.88996,1.1076 4.06293,3.4031 3.84378,4.06055 -0.0732,0.21949 -0.97942,0.87934 -2.0139,1.46631 l -1.88085,1.06722 -1.27632,-1.27632 c -2.51476,-2.51475 -6.58425,-2.68803 -9.19959,-0.39174 -1.8661,1.63847 -2.64273,3.19717 -2.64273,5.30406 0,3.37077 2.62453,6.41528 6.00292,6.96351 1.89984,0.30831 4.95548,-0.79873 6.05185,-2.19254 0.43721,-0.55583 0.90111,-1.01061 1.03088,-1.01061 0.58166,0 4.02623,2.33515 4.02623,2.72947 0,0.74075 -3.02213,3.38835 -4.99608,4.3769 -2.58433,1.29425 -6.27598,1.48712 -9.1087,0.4759 l 0,0 z m -59.03808,0.11398 c -0.17215,-0.17753 -0.31301,-3.85993 -0.31301,-8.18311 l 0,-7.86034 2.50418,0 2.50417,0 0,5.89671 0,5.89669 3.28074,-0.1899 c 5.45837,-0.31599 7.70982,-2.37171 7.70982,-7.03958 0,-1.99272 -0.20127,-2.68848 -1.12994,-3.90602 -1.75885,-2.30597 -2.4362,-2.51682 -8.81721,-2.74472 l -5.84309,-0.20868 -0.12618,-2.19115 -0.12618,-2.19115 6.05791,0 c 5.07263,0 6.42749,0.13826 8.33014,0.85013 2.65382,0.99293 5.29043,3.59971 6.14091,6.07146 0.81462,2.36751 0.73357,6.68981 -0.16932,9.0309 -0.90254,2.34015 -4.01868,5.32611 -6.38899,6.12208 -1.81475,0.60941 -13.12896,1.14685 -13.61401,0.64668 l 0,0 z m 27.44162,-0.42264 c -4.17958,-2.17377 -5.93035,-7.07947 -4.01084,-11.2385 1.44807,-3.13754 4.2471,-4.79968 8.08263,-4.79968 4.48915,0 7.99894,3.05474 8.51486,7.41088 l 0.25919,2.18848 -6.52726,0 c -3.81628,0 -6.52725,0.16367 -6.52725,0.39409 0,0.21674 0.42876,0.89256 0.95283,1.50182 0.68562,0.79707 1.48109,1.16728 2.83641,1.32005 1.60413,0.18081 2.07882,0.048 3.19962,-0.89507 l 1.31605,-1.10738 1.79496,0.90531 c 0.98723,0.49793 1.87396,0.97688 1.97051,1.06434 0.37678,0.34133 -1.93144,2.39256 -3.51446,3.12318 -2.11743,0.97725 -6.58658,1.04819 -8.34725,0.13248 l 0,0 z m 7.72122,-10.13041 c 0,-0.98298 -1.85577,-1.94282 -3.75627,-1.94282 -1.9005,0 -3.75627,0.95984 -3.75627,1.94282 0,0.19397 1.69032,0.35269 3.75627,0.35269 2.06595,0 3.75627,-0.15872 3.75627,-0.35269 z m 7.9299,2.669 0,-8.1594 2.51318,0 2.5132,0 -0.11335,8.03424 -0.11335,8.03423 -2.39984,0.12517 -2.39983,0.12516 0,-8.1594 -1e-5,0 z m 0,-12.54171 0,-2.29549 2.50417,0 2.50418,0 0,2.29549 0,2.29549 -2.50418,0 -2.50417,0 0,-2.29549 z m -19.80431,-1.01103 c -1.93325,-3.06247 -5.92347,-5.63435 -10.50264,-6.76946 -1.12127,-0.27794 -4.66808,-0.50571 -7.88176,-0.50615 -3.87289,-5.3e-4 -5.28017,-0.10827 -4.17364,-0.31969 0.91821,-0.17537 3.83681,-0.3297 6.48578,-0.34293 7.56678,-0.0377 12.46071,1.60566 15.97757,5.36547 l 1.90862,2.04046 1.79568,-0.6255 c 1.79213,-0.62426 7.63282,-0.59645 9.13148,0.0435 0.49793,0.2126 0.79209,-0.12529 1.20913,-1.38891 0.60439,-1.83131 2.43876,-3.93019 4.25641,-4.87013 2.97481,-1.53833 7.22354,-1.06967 9.65479,1.06499 l 1.36834,1.20143 2.90414,-1.41973 c 4.99403,-2.44138 10.04421,-2.65483 14.6464,-0.61908 2.6725,1.18218 2.14981,1.39304 -0.89471,0.36096 -4.78337,-1.62153 -11.10915,-0.48643 -15.36061,2.75632 l -1.39362,1.06297 -1.18693,-1.2389 c -2.54424,-2.65562 -6.73989,-3.14808 -9.683,-1.13653 -1.5581,1.06493 -3.04811,3.51286 -3.04811,5.0077 0,1.40551 -0.95936,1.68543 -3.18581,0.92951 -2.47647,-0.84077 -6.12687,-0.7725 -8.84243,0.16538 l -2.2202,0.7668 -0.96488,-1.52846 0,0 z"
       id="path2982"
       inkscape:connector-curvature="0" />
    <text
       id="text2596"
       y="496.86703"
       x="339.34021"
       style="font-size:50.82875824px;font-style:normal;font-weight:normal;fill:#000000;fill-opacity:1;stroke:none;font-family:Bitstream Vera Sans"
       xml:space="preserve"><tspan
         style="font-size:22.87294006px;font-style:normal;font-variant:normal;font-weight:bold;font-stretch:normal;fill:#000000;font-family:Verdana;-inkscape-font-specification:Verdana Bold"
         y="496.86703"
         x="339.34021"
         id="tspan2598"
         sodipodi:role="line">data</tspan></text>
    <text
       transform="translate(264.07956,469.36218)"
       id="text2620"
       y="138.5"
       x="43.5"
       style="font-size:40px;font-style:normal;font-weight:normal;fill:#000000;fill-opacity:1;stroke:none;stroke-width:1px;stroke-linecap:butt;stroke-linejoin:miter;stroke-opacity:1;font-family:Bitstream Vera Sans"
       xml:space="preserve"><tspan
         y="138.5"
         x="43.5"
         id="tspan2622"
         sodipodi:role="line" /></text>
  </g>
</svg>
