<?xml version="1.0" encoding="UTF-8" standalone="no"?>
<!-- Created with Inkscape (http://www.inkscape.org/) -->
<svg
   xmlns:dc="http://purl.org/dc/elements/1.1/"
   xmlns:cc="http://creativecommons.org/ns#"
   xmlns:rdf="http://www.w3.org/1999/02/22-rdf-syntax-ns#"
   xmlns:svg="http://www.w3.org/2000/svg"
   xmlns="http://www.w3.org/2000/svg"
   xmlns:sodipodi="http://sodipodi.sourceforge.net/DTD/sodipodi-0.dtd"
   xmlns:inkscape="http://www.inkscape.org/namespaces/inkscape"
   width="108"
   height="24"
   id="svg2469"
   sodipodi:version="0.32"
   inkscape:version="0.46"
   sodipodi:docname="deic_data_white.svg"
   inkscape:output_extension="org.inkscape.output.svg.inkscape"
   version="1.0">
  <sodipodi:namedview
     id="base"
     pagecolor="#ffffff"
     bordercolor="#666666"
     borderopacity="1.0"
     gridtolerance="10000"
     guidetolerance="10"
     objecttolerance="10"
     inkscape:pageopacity="0.0"
     inkscape:pageshadow="2"
     inkscape:zoom="2"
     inkscape:cx="-6.5860463"
     inkscape:cy="-55.88782"
     inkscape:document-units="px"
     inkscape:current-layer="layer1"
     showgrid="false"
     inkscape:window-width="867"
     inkscape:window-height="715"
     inkscape:window-x="419"
     inkscape:window-y="96" />
  <defs
     id="defs2471">
    <inkscape:perspective
       id="perspective2477"
       inkscape:persp3d-origin="372.04724 : 350.78739 : 1"
       inkscape:vp_z="744.09448 : 526.18109 : 1"
       inkscape:vp_y="0 : 1000 : 0"
       inkscape:vp_x="0 : 526.18109 : 1"
       sodipodi:type="inkscape:persp3d" />
    <inkscape:perspective
       sodipodi:type="inkscape:persp3d"
       inkscape:vp_x="0 : 526.18109 : 1"
       inkscape:vp_y="0 : 1000 : 0"
       inkscape:vp_z="744.09448 : 526.18109 : 1"
       inkscape:persp3d-origin="372.04724 : 350.78739 : 1"
       id="perspective2486" />
    <inkscape:perspective
       sodipodi:type="inkscape:persp3d"
       inkscape:vp_x="0 : 15.999964 : 1"
       inkscape:vp_y="0 : 1000 : 0"
       inkscape:vp_z="77.121002 : 15.999964 : 1"
       inkscape:persp3d-origin="38.560501 : 10.666643 : 1"
       id="perspective2592" />
  </defs>
  <metadata
     id="metadata2474">
    <rdf:RDF>
      <cc:Work
         rdf:about="">
        <dc:format>image/svg+xml</dc:format>
        <dc:type
           rdf:resource="http://purl.org/dc/dcmitype/StillImage" />
      </cc:Work>
    </rdf:RDF>
  </metadata>
  <g
     transform="scale(0.75) translate(-254.07956,-466.36218)"
     id="layer1"
     inkscape:groupmode="layer"
     inkscape:label="Layer 1">
    <path
       style="fill:#ffffff"
       d="M 310.82059,492.85479 C 308.38088,491.98386 306.8206,490.60483 305.58024,488.22321 C 301.21211,479.83594 310.6126,471.06931 318.81804,475.87802 C 320.30536,476.74965 322.01539,478.55611 321.84293,479.07349 C 321.78533,479.24622 321.07217,479.76549 320.25808,480.22741 L 318.77793,481.06727 L 317.77352,480.06286 C 315.79452,478.08386 312.59201,477.9475 310.53385,479.75458 C 309.06531,481.04398 308.45414,482.27061 308.45414,483.92864 C 308.45414,486.58129 310.51953,488.97718 313.17817,489.40862 C 314.67326,489.65124 317.07792,488.78005 317.94071,487.68318 C 318.28478,487.24577 318.64985,486.88788 318.75197,486.88788 C 319.20971,486.88788 321.92044,488.72554 321.92044,489.03585 C 321.92044,489.61879 319.54215,491.70233 317.98874,492.48028 C 315.95499,493.4988 313.04982,493.65058 310.82059,492.85479 L 310.82059,492.85479 z M 264.36022,492.94445 C 264.22474,492.80474 264.11389,489.90685 264.11389,486.5047 L 264.11389,480.31896 L 266.08457,480.31896 L 268.05524,480.31896 L 268.05524,484.95941 L 268.05524,489.59985 L 270.63704,489.4504 C 274.93254,489.20173 276.70433,487.58397 276.70433,483.91056 C 276.70433,482.34238 276.54594,481.79485 275.81512,480.8367 C 274.43098,479.022 273.89794,478.85607 268.87636,478.67672 L 264.27811,478.5125 L 264.17884,476.78816 L 264.07956,475.06382 L 268.84687,475.06382 C 272.83881,475.06382 273.90502,475.17263 275.40232,475.73284 C 277.49076,476.51423 279.56566,478.56565 280.23495,480.51081 C 280.87602,482.37394 280.81224,485.7754 280.1017,487.61773 C 279.39144,489.45933 276.93918,491.80915 275.07385,492.43554 C 273.64572,492.91512 264.74193,493.33806 264.36022,492.94445 L 264.36022,492.94445 z M 285.95557,492.61185 C 282.66642,490.90119 281.28864,487.04062 282.79921,483.76764 C 283.93878,481.29854 286.14149,479.99051 289.15989,479.99051 C 292.69265,479.99051 295.4547,482.39445 295.86071,485.82254 L 296.06468,487.54478 L 290.92801,487.54478 C 287.92477,487.54478 285.79135,487.67358 285.79135,487.85491 C 285.79135,488.02548 286.12877,488.55732 286.54119,489.03678 C 287.08074,489.66404 287.70674,489.95538 288.77332,490.0756 C 290.0357,490.21789 290.40926,490.11339 291.29128,489.37122 L 292.32695,488.49976 L 293.73951,489.2122 C 294.51641,489.60405 295.21423,489.98096 295.29021,490.04979 C 295.58672,490.3184 293.77025,491.93263 292.52449,492.50759 C 290.85816,493.27665 287.34114,493.33247 285.95557,492.61185 L 285.95557,492.61185 z M 292.03183,484.63966 C 292.03183,483.8661 290.57142,483.11075 289.07581,483.11075 C 287.5802,483.11075 286.11979,483.8661 286.11979,484.63966 C 286.11979,484.79231 287.45,484.91721 289.07581,484.91721 C 290.70162,484.91721 292.03183,484.79231 292.03183,484.63966 z M 298.27231,486.74005 L 298.27231,480.31896 L 300.25007,480.31896 L 302.22785,480.31896 L 302.13865,486.64155 L 302.04945,492.96414 L 300.16088,493.06264 L 298.27232,493.16114 L 298.27232,486.74005 L 298.27231,486.74005 z M 298.27231,476.87027 L 298.27231,475.06382 L 300.24298,475.06382 L 302.21366,475.06382 L 302.21366,476.87027 L 302.21366,478.67672 L 300.24298,478.67672 L 298.27231,478.67672 L 298.27231,476.87027 z M 282.68719,476.07464 C 281.16581,473.66461 278.02568,471.64065 274.42207,470.74737 C 273.53968,470.52864 270.7485,470.3494 268.21947,470.34905 C 265.17168,470.34863 264.06421,470.2638 264.935,470.09747 C 265.65759,469.95946 267.9544,469.83801 270.03903,469.8276 C 275.99375,469.79787 279.84506,471.09118 282.61267,474.04999 L 284.11467,475.65574 L 285.52779,475.1635 C 286.93812,474.67223 291.53449,474.69412 292.71387,475.19772 C 293.10572,475.36503 293.33721,475.09912 293.6654,474.10471 C 294.14103,472.66355 295.5846,471.01182 297.01501,470.27213 C 299.35605,469.06153 302.69962,469.43035 304.6129,471.11023 L 305.68973,472.0557 L 307.97516,470.93844 C 311.90524,469.01718 315.87951,468.8492 319.50123,470.45125 C 321.60437,471.38157 321.19304,471.54751 318.79713,470.73531 C 315.03283,469.45924 310.05472,470.35251 306.70901,472.90441 L 305.61229,473.74092 L 304.67823,472.76596 C 302.67602,470.67611 299.37423,470.28856 297.05813,471.87156 C 295.83198,472.70962 294.6594,474.63603 294.6594,475.8124 C 294.6594,476.91848 293.90443,477.13876 292.15231,476.54389 C 290.20344,475.88224 287.33073,475.93596 285.19371,476.67403 L 283.44651,477.27747 L 282.68719,476.07464 L 282.68719,476.07464 z"
       id="path2982"
       inkscape:connector-curvature="0" />
    <text
       id="text2596"
       y="492.86218"
       x="328.5"
       style="font-size:40px;font-style:normal;font-weight:normal;fill:#ffffff;fill-opacity:1;stroke:none;stroke-width:1px;stroke-linecap:butt;stroke-linejoin:miter;stroke-opacity:1;font-family:Bitstream Vera Sans"
       xml:space="preserve"><tspan
         style="font-size:18px;font-style:normal;font-variant:normal;font-weight:bold;font-stretch:normal;font-family:Verdana;-inkscape-font-specification:Verdana Bold;fill:#ffffff"
         y="492.86218"
         x="328.5"
         id="tspan2598"
         sodipodi:role="line">data</tspan></text>
    <text
       transform="translate(264.07956,469.36218)"
       id="text2620"
       y="138.5"
       x="43.5"
       style="font-size:40px;font-style:normal;font-weight:normal;fill:#000000;fill-opacity:1;stroke:none;stroke-width:1px;stroke-linecap:butt;stroke-linejoin:miter;stroke-opacity:1;font-family:Bitstream Vera Sans"
       xml:space="preserve"><tspan
         y="138.5"
         x="43.5"
         id="tspan2622"
         sodipodi:role="line" /></text>
  </g>
</svg>
