<?xml version="1.0" encoding="UTF-8" standalone="no"?>
<!-- Created with Inkscape (http://www.inkscape.org/) -->

<svg
   xmlns:dc="http://purl.org/dc/elements/1.1/"
   xmlns:cc="http://creativecommons.org/ns#"
   xmlns:rdf="http://www.w3.org/1999/02/22-rdf-syntax-ns#"
   xmlns:svg="http://www.w3.org/2000/svg"
   xmlns="http://www.w3.org/2000/svg"
   xmlns:sodipodi="http://sodipodi.sourceforge.net/DTD/sodipodi-0.dtd"
   xmlns:inkscape="http://www.inkscape.org/namespaces/inkscape"
   width="108"
   height="24"
   id="svg2469"
   sodipodi:version="0.32"
   inkscape:version="0.48.4 r9939"
   sodipodi:docname="logo-wide-black.svg"
   inkscape:output_extension="org.inkscape.output.svg.inkscape"
   version="1.0">
  <sodipodi:namedview
     id="base"
     pagecolor="#ffffff"
     bordercolor="#666666"
     borderopacity="1.0"
     gridtolerance="10000"
     guidetolerance="10"
     objecttolerance="10"
     inkscape:pageopacity="0.0"
     inkscape:pageshadow="2"
     inkscape:zoom="7.9999999"
     inkscape:cx="39.727638"
     inkscape:cy="5.648419"
     inkscape:document-units="px"
     inkscape:current-layer="layer1"
     showgrid="false"
     inkscape:window-width="1281"
     inkscape:window-height="1148"
     inkscape:window-x="551"
     inkscape:window-y="24"
     inkscape:window-maximized="0" />
  <defs
     id="defs2471">
    <inkscape:perspective
       id="perspective2477"
       inkscape:persp3d-origin="372.04724 : 350.78739 : 1"
       inkscape:vp_z="744.09448 : 526.18109 : 1"
       inkscape:vp_y="0 : 1000 : 0"
       inkscape:vp_x="0 : 526.18109 : 1"
       sodipodi:type="inkscape:persp3d" />
    <inkscape:perspective
       sodipodi:type="inkscape:persp3d"
       inkscape:vp_x="0 : 526.18109 : 1"
       inkscape:vp_y="0 : 1000 : 0"
       inkscape:vp_z="744.09448 : 526.18109 : 1"
       inkscape:persp3d-origin="372.04724 : 350.78739 : 1"
       id="perspective2486" />
    <inkscape:perspective
       sodipodi:type="inkscape:persp3d"
       inkscape:vp_x="0 : 15.999964 : 1"
       inkscape:vp_y="0 : 1000 : 0"
       inkscape:vp_z="77.121002 : 15.999964 : 1"
       inkscape:persp3d-origin="38.560501 : 10.666643 : 1"
       id="perspective2592" />
  </defs>
  <metadata
     id="metadata2474">
    <rdf:RDF>
      <cc:Work
         rdf:about="">
        <dc:format>image/svg+xml</dc:format>
        <dc:type
           rdf:resource="http://purl.org/dc/dcmitype/StillImage" />
        <dc:title></dc:title>
      </cc:Work>
    </rdf:RDF>
  </metadata>
  <g
     transform="scale(0.75) translate(-254.07956,-466.36218)"
     id="layer1"
     inkscape:groupmode="layer"
     inkscape:label="Layer 1">
    <g
       style="font-size:50.82875823999999909px;font-style:normal;font-weight:normal;fill:#b3c43c;fill-opacity:1;stroke:none;font-family:Bitstream Vera Sans"
       id="text2596">
      <path
         d="m 349.77152,486.19002 0,-6.70106 4.02064,0 0,17.37807 -4.02064,0 0,-1.80928 c -0.55098,0.73712 -1.1578,1.27692 -1.82045,1.61942 -0.66267,0.3425 -1.42957,0.51375 -2.3007,0.51375 -1.54125,0 -2.807,-0.61054 -3.79726,-1.83162 -0.99027,-1.22853 -1.48541,-2.807 -1.4854,-4.73542 -10e-6,-1.9284 0.49513,-3.50315 1.4854,-4.72424 0.99026,-1.22852 2.25601,-1.84278 3.79726,-1.84279 0.86369,10e-6 1.62686,0.17498 2.28953,0.52491 0.6701,0.34251 1.28064,0.8786 1.83162,1.60826 m -2.63575,8.09711 c 0.85624,0 1.50773,-0.31271 1.95448,-0.93815 0.45417,-0.62543 0.68126,-1.53379 0.68127,-2.7251 -1e-5,-1.19129 -0.2271,-2.09965 -0.68127,-2.72509 -0.44675,-0.62542 -1.09824,-0.93814 -1.95448,-0.93815 -0.8488,10e-6 -1.5003,0.31273 -1.95447,0.93815 -0.44674,0.62544 -0.67011,1.5338 -0.67011,2.72509 0,1.19131 0.22337,2.09967 0.67011,2.7251 0.45417,0.62544 1.10567,0.93815 1.95447,0.93815"
         style="font-size:22.87294006000000124px;font-variant:normal;font-weight:bold;font-stretch:normal;fill:#b3c43c;font-family:Verdana;-inkscape-font-specification:Verdana Bold;fill-opacity:1"
         id="path2991" />
      <path
         d="m 363.26298,491.23815 c -0.83391,0 -1.46307,0.14147 -1.88746,0.4244 -0.41696,0.28294 -0.62544,0.69989 -0.62543,1.25086 -10e-6,0.50631 0.16752,0.90465 0.50258,1.19502 0.34249,0.28294 0.81528,0.42441 1.41839,0.4244 0.752,1e-5 1.38487,-0.26804 1.89863,-0.80412 0.51374,-0.54353 0.77061,-1.22108 0.77062,-2.03266 l 0,-0.4579 -2.07733,0 m 6.10913,-1.50774 0,7.13662 -4.0318,0 0,-1.85395 c -0.53609,0.75945 -1.13919,1.31415 -1.80929,1.66409 -0.67011,0.3425 -1.4854,0.51375 -2.44588,0.51375 -1.29554,0 -2.3491,-0.376 -3.16067,-1.12801 -0.80412,-0.75945 -1.20619,-1.74227 -1.20619,-2.94847 0,-1.46678 0.50258,-2.54267 1.50774,-3.22767 1.0126,-0.68499 2.59852,-1.02749 4.75775,-1.0275 l 2.35654,0 0,-0.31271 c -10e-6,-0.63287 -0.24944,-1.0945 -0.74828,-1.38489 -0.49887,-0.29781 -1.27694,-0.44673 -2.33421,-0.44674 -0.85625,1e-5 -1.65293,0.0856 -2.39004,0.25688 -0.73712,0.17126 -1.42212,0.42813 -2.05499,0.77062 l 0,-3.04898 c 0.85624,-0.20847 1.71621,-0.36482 2.57991,-0.46908 0.86368,-0.11167 1.72737,-0.16751 2.59107,-0.16752 2.25601,10e-6 3.88288,0.44675 4.8806,1.34021 1.00515,0.88604 1.50773,2.33049 1.50774,4.33335"
         style="font-size:22.87294006000000124px;font-variant:normal;font-weight:bold;font-stretch:normal;fill:#b3c43c;font-family:Verdana;-inkscape-font-specification:Verdana Bold;fill-opacity:1"
         id="path2993" />
      <path
         d="m 377.48039,480.80684 0,3.55156 4.12115,0 0,2.85911 -4.12115,0 0,5.30501 c -10e-6,0.58076 0.1154,0.97538 0.34622,1.18385 0.23081,0.20103 0.68871,0.30155 1.37372,0.30155 l 2.05499,0 0,2.85911 -3.42871,0 c -1.57847,0 -2.69904,-0.3276 -3.36169,-0.98282 -0.65522,-0.66266 -0.98283,-1.78322 -0.98283,-3.36169 l 0,-5.30501 -1.98798,0 0,-2.85911 1.98798,0 0,-3.55156 3.9983,0"
         style="font-size:22.87294006000000124px;font-variant:normal;font-weight:bold;font-stretch:normal;fill:#b3c43c;font-family:Verdana;-inkscape-font-specification:Verdana Bold;fill-opacity:1"
         id="path2995" />
      <path
         d="m 389.66515,491.23815 c -0.83392,0 -1.46307,0.14147 -1.88747,0.4244 -0.41696,0.28294 -0.62543,0.69989 -0.62543,1.25086 0,0.50631 0.16752,0.90465 0.50258,1.19502 0.34249,0.28294 0.81529,0.42441 1.41839,0.4244 0.752,1e-5 1.38488,-0.26804 1.89863,-0.80412 0.51374,-0.54353 0.77061,-1.22108 0.77062,-2.03266 l 0,-0.4579 -2.07732,0 m 6.10913,-1.50774 0,7.13662 -4.03181,0 0,-1.85395 c -0.53609,0.75945 -1.13918,1.31415 -1.80928,1.66409 -0.67011,0.3425 -1.48541,0.51375 -2.44589,0.51375 -1.29554,0 -2.34909,-0.376 -3.16066,-1.12801 -0.80413,-0.75945 -1.20619,-1.74227 -1.20619,-2.94847 0,-1.46678 0.50258,-2.54267 1.50774,-3.22767 1.0126,-0.68499 2.59851,-1.02749 4.75775,-1.0275 l 2.35653,0 0,-0.31271 c -1e-5,-0.63287 -0.24943,-1.0945 -0.74828,-1.38489 -0.49886,-0.29781 -1.27693,-0.44673 -2.3342,-0.44674 -0.85625,1e-5 -1.65293,0.0856 -2.39005,0.25688 -0.73711,0.17126 -1.42211,0.42813 -2.05499,0.77062 l 0,-3.04898 c 0.85625,-0.20847 1.71622,-0.36482 2.57991,-0.46908 0.86369,-0.11167 1.72738,-0.16751 2.59108,-0.16752 2.25601,10e-6 3.88288,0.44675 4.8806,1.34021 1.00514,0.88604 1.50772,2.33049 1.50774,4.33335"
         style="font-size:22.87294006000000124px;font-variant:normal;font-weight:bold;font-stretch:normal;fill:#b3c43c;font-family:Verdana;-inkscape-font-specification:Verdana Bold;fill-opacity:1"
         id="path2997" />
    </g>
    <text
       transform="translate(264.07956,469.36218)"
       id="text2620"
       y="138.5"
       x="43.5"
       style="font-size:40px;font-style:normal;font-weight:normal;fill:#000000;fill-opacity:1;stroke:none;stroke-width:1px;stroke-linecap:butt;stroke-linejoin:miter;stroke-opacity:1;font-family:Bitstream Vera Sans"
       xml:space="preserve"><tspan
         y="138.5"
         x="43.5"
         id="tspan2622"
         sodipodi:role="line" /></text>
    <path
       inkscape:connector-curvature="0"
       id="path3077"
       d="m 316.87463,496.85766 c -3.10019,-1.10671 -5.08287,-2.85907 -6.65902,-5.88544 -5.55066,-10.65786 6.39472,-21.79778 16.82153,-15.68727 1.88996,1.1076 4.06293,3.4031 3.84378,4.06055 -0.0732,0.21949 -0.97942,0.87934 -2.0139,1.46631 l -1.88085,1.06722 -1.27632,-1.27632 c -2.51476,-2.51475 -6.58425,-2.68803 -9.19959,-0.39174 -1.8661,1.63847 -2.64273,3.19717 -2.64273,5.30406 0,3.37077 2.62453,6.41528 6.00292,6.96351 1.89984,0.30831 4.95548,-0.79873 6.05185,-2.19254 0.43721,-0.55583 0.90111,-1.01061 1.03088,-1.01061 0.58166,0 4.02623,2.33515 4.02623,2.72947 0,0.74075 -3.02213,3.38835 -4.99608,4.3769 -2.58433,1.29425 -6.27598,1.48712 -9.1087,0.4759 z m -59.03808,0.11398 c -0.17215,-0.17753 -0.31301,-3.85993 -0.31301,-8.18311 l 0,-7.86034 2.50418,0 2.50417,0 0,5.89671 0,5.89669 3.28074,-0.1899 c 5.45837,-0.31599 7.70982,-2.37171 7.70982,-7.03958 0,-1.99272 -0.20127,-2.68848 -1.12994,-3.90602 -1.75885,-2.30597 -2.4362,-2.51682 -8.81721,-2.74472 l -5.84309,-0.20868 -0.12618,-2.19115 -0.12618,-2.19115 6.05791,0 c 5.07263,0 6.42749,0.13826 8.33014,0.85013 2.65382,0.99293 5.29043,3.59971 6.14091,6.07146 0.81462,2.36751 0.73357,6.68981 -0.16932,9.0309 -0.90254,2.34015 -4.01868,5.32611 -6.38899,6.12208 -1.81475,0.60941 -13.12896,1.14685 -13.61401,0.64668 l 0,0 z m 27.44162,-0.42264 c -4.17958,-2.17377 -5.93035,-7.07947 -4.01084,-11.2385 1.44807,-3.13754 4.2471,-4.79968 8.08263,-4.79968 4.48915,0 7.99894,3.05474 8.51486,7.41088 l 0.25919,2.18848 -6.52726,0 c -3.81628,0 -6.52725,0.16367 -6.52725,0.39409 0,0.21674 0.42876,0.89256 0.95283,1.50182 0.68562,0.79707 1.48109,1.16728 2.83641,1.32005 1.60413,0.18081 2.07882,0.048 3.19962,-0.89507 l 1.31605,-1.10738 1.79496,0.90531 c 0.98723,0.49793 1.87396,0.97688 1.97051,1.06434 0.37678,0.34133 -1.93144,2.39256 -3.51446,3.12318 -2.11743,0.97725 -6.58658,1.04819 -8.34725,0.13248 z m 7.72122,-10.13041 c 0,-0.98298 -1.85577,-1.94282 -3.75627,-1.94282 -1.9005,0 -3.75627,0.95984 -3.75627,1.94282 0,0.19397 1.69032,0.35269 3.75627,0.35269 2.06595,0 3.75627,-0.15872 3.75627,-0.35269 z m 7.9299,2.669 0,-8.1594 2.51318,0 2.5132,0 -0.11335,8.03424 -0.11335,8.03423 -2.39984,0.12517 -2.39983,0.12516 0,-8.1594 z m 0,-12.54171 0,-2.29549 2.50417,0 2.50418,0 0,2.29549 0,2.29549 -2.50418,0 -2.50417,0 z m -10.86137,-4.16883 c -20.43668,15.99009 -10.21834,7.99504 0,0 z"
       style="fill:#767776;fill-opacity:1"
       sodipodi:nodetypes="csscscsssssssscccscccccsssscccsssssccccssscssssscscsccsssssccccccccccccccccccccc" />
    <path
       style="fill:#b3c43c;fill-opacity:1"
       d="m 281.12498,475.53485 c -1.93325,-3.06247 -5.92347,-5.63435 -10.50264,-6.76946 -1.12127,-0.27794 -4.66808,-0.50571 -7.88176,-0.50615 -3.87289,-5.3e-4 -5.28017,-0.10827 -4.17364,-0.31969 0.91821,-0.17537 3.83681,-0.3297 6.48578,-0.34293 7.56678,-0.0377 12.46071,1.60566 15.97757,5.36547 l 1.90862,2.04046 1.79568,-0.6255 c 1.79213,-0.62426 7.63282,-0.59645 9.13148,0.0435 0.49793,0.2126 0.79209,-0.12529 1.20913,-1.38891 0.60439,-1.83131 2.43876,-3.93019 4.25641,-4.87013 2.97481,-1.53833 7.22354,-1.06967 9.65479,1.06499 l 1.36834,1.20143 2.90414,-1.41973 c 4.99403,-2.44138 10.04421,-2.65483 14.6464,-0.61908 2.6725,1.18218 2.14981,1.39304 -0.89471,0.36096 -4.78337,-1.62153 -11.10915,-0.48643 -15.36061,2.75632 l -1.39362,1.06297 -1.18693,-1.2389 c -2.54424,-2.65562 -6.73989,-3.14808 -9.683,-1.13653 -1.5581,1.06493 -3.04811,3.51286 -3.04811,5.0077 0,1.40551 -0.95936,1.68543 -3.18581,0.92951 -2.47647,-0.84077 -6.12687,-0.7725 -8.84243,0.16538 l -2.2202,0.7668 -0.96488,-1.52846 0,0 z"
       id="path3081"
       inkscape:connector-curvature="0"
       sodipodi:nodetypes="cssccscscssscsssscssscscccc" />
  </g>
</svg>
