<?xml version="1.0" encoding="UTF-8" standalone="no"?>
<svg
   xmlns:dc="http://purl.org/dc/elements/1.1/"
   xmlns:cc="http://creativecommons.org/ns#"
   xmlns:rdf="http://www.w3.org/1999/02/22-rdf-syntax-ns#"
   xmlns:svg="http://www.w3.org/2000/svg"
   xmlns="http://www.w3.org/2000/svg"
   xmlns:sodipodi="http://sodipodi.sourceforge.net/DTD/sodipodi-0.dtd"
   xmlns:inkscape="http://www.inkscape.org/namespaces/inkscape"
   height="32"
   width="32"
   version="1.1"
   id="svg2"
   inkscape:version="0.48.4 r9939"
   sodipodi:docname="calendar_DeicTheme.svg">
  <metadata
     id="metadata14">
    <rdf:RDF>
      <cc:Work
         rdf:about="">
        <dc:format>image/svg+xml</dc:format>
        <dc:type
           rdf:resource="http://purl.org/dc/dcmitype/StillImage" />
      </cc:Work>
    </rdf:RDF>
  </metadata>
  <defs
     id="defs12" />
  <sodipodi:namedview
     pagecolor="#ffffff"
     bordercolor="#666666"
     borderopacity="1"
     objecttolerance="10"
     gridtolerance="10"
     guidetolerance="10"
     inkscape:pageopacity="0"
     inkscape:pageshadow="2"
     inkscape:window-width="1139"
     inkscape:window-height="754"
     id="namedview10"
     showgrid="false"
     inkscape:zoom="7.375"
     inkscape:cx="-7.8644068"
     inkscape:cy="16"
     inkscape:window-x="75"
     inkscape:window-y="34"
     inkscape:window-maximized="0"
     inkscape:current-layer="g4" />
  <g
     transform="translate(580.71 -1.5765)"
     id="g4">
    <path
       d="m-572.71 4.5765c-1.108 0-2 0.892-2 2v4c0 1.108 0.892 2 2 2s2-0.892 2-2v-4c0-1.108-0.892-2-2-2zm16 0c-1.108 0-2 0.892-2 2v4c0 1.108 0.892 2 2 2s2-0.892 2-2v-4c0-1.108-0.892-2-2-2zm-13 4v2c0 1.662-1.338 3-3 3s-3-1.338-3-3v-1.875c-1.728 0.44254-3 2.0052-3 3.875v16c0 2.216 1.784 4 4 4h20c2.216 0 4-1.784 4-4v-16c0-1.8698-1.272-3.4325-3-3.875v1.875c0 1.662-1.338 3-3 3s-3-1.338-3-3v-2zm-4.9062 10h19.812c0.0554 0 0.0937 0.03835 0.0937 0.09375v9.8122c0 0.05539-0.0384 0.09375-0.0937 0.09375h-19.812c-0.0554 0-0.0937-0.03835-0.0937-0.09375v-9.8122c0-0.05543 0.0384-0.09375 0.0937-0.09375z"
       fill="#fff"
       id="path6" />
    <path
       d="m-572.71 3.5765c-1.108 0-2 0.892-2 2v4c0 1.108 0.892 2 2 2s2-0.892 2-2v-4c0-1.108-0.892-2-2-2zm16 0c-1.108 0-2 0.892-2 2v4c0 1.108 0.892 2 2 2s2-0.892 2-2v-4c0-1.108-0.892-2-2-2zm-13 4v2c0 1.662-1.338 3-3 3s-3-1.338-3-3v-1.875c-1.728 0.44254-3 2.0052-3 3.875v16c0 2.216 1.784 4 4 4h20c2.216 0 4-1.784 4-4v-16c0-1.8698-1.272-3.4325-3-3.875v1.875c0 1.662-1.338 3-3 3s-3-1.338-3-3v-2zm-4.9062 10h19.812c0.0554 0 0.0937 0.03835 0.0937 0.09375v9.8122c0 0.05539-0.0384 0.09375-0.0937 0.09375h-19.812c-0.0554 0-0.0937-0.03835-0.0937-0.09375v-9.8122c0-0.05543 0.0384-0.09375 0.0937-0.09375z"
       id="path8"
       style="fill:#b8c747;fill-opacity:1" />
  </g>
</svg>
