<?xml version="1.0" encoding="UTF-8" standalone="no"?>
<svg
   xmlns:dc="http://purl.org/dc/elements/1.1/"
   xmlns:cc="http://creativecommons.org/ns#"
   xmlns:rdf="http://www.w3.org/1999/02/22-rdf-syntax-ns#"
   xmlns:svg="http://www.w3.org/2000/svg"
   xmlns="http://www.w3.org/2000/svg"
   xmlns:sodipodi="http://sodipodi.sourceforge.net/DTD/sodipodi-0.dtd"
   xmlns:inkscape="http://www.inkscape.org/namespaces/inkscape"
   height="16"
   width="16"
   version="1.0"
   id="svg2"
   inkscape:version="0.48.4 r9939"
   sodipodi:docname="file (copy).svg">
  <metadata
     id="metadata21">
    <rdf:RDF>
      <cc:Work
         rdf:about="">
        <dc:format>image/svg+xml</dc:format>
        <dc:type
           rdf:resource="http://purl.org/dc/dcmitype/StillImage" />
      </cc:Work>
    </rdf:RDF>
  </metadata>
  <sodipodi:namedview
     pagecolor="#ffffff"
     bordercolor="#666666"
     borderopacity="1"
     objecttolerance="10"
     gridtolerance="10"
     guidetolerance="10"
     inkscape:pageopacity="0"
     inkscape:pageshadow="2"
     inkscape:window-width="1593"
     inkscape:window-height="916"
     id="namedview19"
     showgrid="false"
     inkscape:zoom="14.75"
     inkscape:cx="-3.9322034"
     inkscape:cy="8"
     inkscape:window-x="75"
     inkscape:window-y="34"
     inkscape:window-maximized="0"
     inkscape:current-layer="g13" />
  <defs
     id="defs4">
    <linearGradient
       id="a"
       y2="54.703"
       gradientUnits="userSpaceOnUse"
       y1="2.2401"
       gradientTransform="matrix(.21864 0 0 .26685 18.619 -19.598)"
       x2="-41.553"
       x1="-41.553">
      <stop
         offset="0"
         id="stop7"
         style="stop-color:#b8c747;stop-opacity:1" />
      <stop
         stop-color="#363636"
         offset="1"
         id="stop9"
         style="stop-color:#b8c7b0;stop-opacity:0.553" />
    </linearGradient>
  </defs>
  <rect
     style="color:#000000"
     fill-opacity="0"
     height="97.986"
     width="163.31"
     y="-32.993"
     x="-62.897"
     id="rect11" />
  <g
     transform="translate(-3.1069e-8 20)"
     id="g13">
    <path
       opacity=".6"
       style="block-progression:tb;text-indent:0;color:#000000;text-transform:none"
       d="m3.3501-17.998c-0.19747 0.03825-0.35355 0.23333-0.35 0.43744v13.123c0.0000047 0.22904 0.20522 0.43743 0.43077 0.43744h10.139c0.22555-0.000006 0.43076-0.2084 0.43077-0.43744v-10.143c-0.0033-0.06685-0.02179-0.13289-0.05384-0.19138-0.96556-1.3896-2.0351-2.4191-3.3115-3.1988-0.04304-0.01632-0.08869-0.02559-0.13462-0.02734h-7.0695c-0.026843-0.0026-0.053928-0.0026-0.080774 0zm5.6499 2.498c0-0.2357 0.2643-0.5 0.5-0.5h0.5v2h2v0.5c0 0.2357-0.2643 0.5-0.5 0.5h-2c-0.2357 0-0.5-0.2643-0.5-0.5 0-0.46411 0.0000019-1.4917 0.0000019-2z"
       fill="#fff"
       id="path15" />
    <path
       opacity=".7"
       style="block-progression:tb;text-indent:0;color:#000000;text-transform:none"
       d="m3.3501-18.998c-0.19747 0.03825-0.35355 0.23333-0.35 0.43744v13.123c0.0000047 0.22904 0.20522 0.43743 0.43077 0.43744h10.139c0.22555-0.000006 0.43076-0.2084 0.43077-0.43744v-10.143c-0.0033-0.06685-0.02179-0.13289-0.05384-0.19138-0.96556-1.3896-2.0351-2.4191-3.3115-3.1988-0.04304-0.01632-0.08869-0.02559-0.13462-0.02734h-7.0695c-0.026843-0.0026-0.053928-0.0026-0.080774 0zm5.6499 2.498c0-0.2357 0.2643-0.5 0.5-0.5h0.5v2h2v0.5c0 0.2357-0.2643 0.5-0.5 0.5h-2c-0.2357 0-0.5-0.2643-0.5-0.5 0-0.46411 0.0000019-1.4917 0.0000019-2z"
       fill="url(#a)"
       id="path17" />
  </g>
</svg>
