<?xml version="1.0" encoding="UTF-8" standalone="no"?>
<!-- Created with Inkscape (http://www.inkscape.org/) -->

<svg
   xmlns:dc="http://purl.org/dc/elements/1.1/"
   xmlns:cc="http://creativecommons.org/ns#"
   xmlns:rdf="http://www.w3.org/1999/02/22-rdf-syntax-ns#"
   xmlns:svg="http://www.w3.org/2000/svg"
   xmlns="http://www.w3.org/2000/svg"
   xmlns:sodipodi="http://sodipodi.sourceforge.net/DTD/sodipodi-0.dtd"
   xmlns:inkscape="http://www.inkscape.org/namespaces/inkscape"
   id="svg3036"
   version="1.1"
   inkscape:version="0.48.3.1 r9886"
   width="77.121002"
   height="31.999928"
   sodipodi:docname="logo-wide.svg">
  <metadata
     id="metadata3042">
    <rdf:RDF>
      <cc:Work
         rdf:about="">
        <dc:format>image/svg+xml</dc:format>
        <dc:type
           rdf:resource="http://purl.org/dc/dcmitype/StillImage" />
        <dc:title></dc:title>
      </cc:Work>
    </rdf:RDF>
  </metadata>
  <defs
     id="defs3040" />
  <sodipodi:namedview
     pagecolor="#ffffff"
     bordercolor="#666666"
     borderopacity="1"
     objecttolerance="10"
     gridtolerance="10"
     guidetolerance="10"
     inkscape:pageopacity="0"
     inkscape:pageshadow="2"
     inkscape:window-width="733"
     inkscape:window-height="480"
     id="namedview3038"
     showgrid="false"
     inkscape:zoom="1.6505376"
     inkscape:cx="36.61276"
     inkscape:cy="15.176208"
     inkscape:window-x="247"
     inkscape:window-y="33"
     inkscape:window-maximized="0"
     inkscape:current-layer="svg3036"
     fit-margin-top="0"
     fit-margin-left="0"
     fit-margin-right="0"
     fit-margin-bottom="0" />
  <path
     style="fill:#000000"
     d="m 56.381088,27.492569 c -2.439703,-0.870925 -3.999992,-2.249954 -5.240352,-4.631573 -4.36813,-8.387275 5.032369,-17.1539003 13.237808,-12.34519 1.487321,0.871628 3.197347,2.678082 3.024884,3.195463 -0.0576,0.172736 -0.770762,0.692003 -1.584844,1.153926 l -1.48015,0.839859 -1.004418,-1.004416 c -1.978992,-1.978992 -5.181506,-2.115361 -7.239661,-0.308278 -1.468548,1.289404 -2.07971,2.516031 -2.07971,4.174062 0,2.652645 2.065385,5.048537 4.724021,5.479976 1.495091,0.242619 3.899754,-0.628569 4.762548,-1.725434 0.344071,-0.437414 0.709134,-0.7953 0.811255,-0.7953 0.457741,0 3.168472,1.837655 3.168472,2.147964 0,0.582943 -2.378286,2.666485 -3.931697,3.444438 -2.033757,1.018513 -4.938926,1.170296 -7.168156,0.374503 z M 9.9207234,27.582233 C 9.7852393,27.442524 9.6743883,24.544634 9.6743883,21.142477 l 0,-6.185738 1.9706787,0 1.970677,0 0,4.640448 0,4.640449 2.5818,-0.149458 c 4.295492,-0.248662 6.067286,-1.866428 6.067286,-5.539832 0,-1.568182 -0.15839,-2.115717 -0.889207,-3.073867 -1.384138,-1.814699 -1.91718,-1.98063 -6.938763,-2.159973 L 9.8386117,13.150284 9.7393355,11.42594 9.6400593,9.7015973 l 4.7673157,0 c 3.991932,0 5.058146,0.108814 6.555442,0.6690237 2.088447,0.781388 4.16334,2.832812 4.832634,4.777975 0.641069,1.863128 0.577293,5.264589 -0.13325,7.106915 -0.710262,1.841597 -3.162523,4.191417 -5.027846,4.817813 -1.428132,0.479581 -10.331924,0.902522 -10.7136316,0.508909 z M 31.516069,27.249632 c -3.289152,-1.710656 -4.66693,-5.571233 -3.156355,-8.844207 1.139565,-2.469105 3.342278,-3.777133 6.360675,-3.777133 3.532765,0 6.29481,2.403937 6.700819,5.832033 l 0.203972,1.722232 -5.136667,0 c -3.003243,0 -5.136667,0.128808 -5.136667,0.310131 0,0.170572 0.337429,0.702416 0.749841,1.181874 0.539549,0.627263 1.16555,0.9186 2.232134,1.038819 1.262381,0.142289 1.635943,0.03779 2.517959,-0.704381 l 1.035667,-0.871456 1.412559,0.712441 c 0.776908,0.391843 1.474725,0.768757 1.550707,0.837588 0.296512,0.268605 -1.519958,1.882838 -2.765718,2.457794 -1.666333,0.769062 -5.183357,0.824887 -6.568926,0.104265 z m 6.076257,-7.972186 c 0,-0.773562 -1.460406,-1.528914 -2.956017,-1.528914 -1.495612,0 -2.956017,0.755352 -2.956017,1.528914 0,0.152647 1.330207,0.277541 2.956017,0.277541 1.625809,0 2.956017,-0.124894 2.956017,-0.277541 z m 6.240483,2.100386 0,-6.421093 1.977762,0 1.977777,0 -0.0892,6.322591 -0.0892,6.322592 -1.888564,0.0985 -1.888565,0.0985 0,-6.421094 z m 0,-9.869781 0,-1.8064537 1.970675,0 1.970674,0 0,1.8064537 0,1.806455 -1.970674,0 -1.970675,0 0,-1.806455 z M 28.247693,10.71242 C 26.726311,8.3023941 23.586184,6.2784335 19.982571,5.385156 19.100176,5.1664247 16.309004,4.987178 13.779967,4.98683 10.732182,4.98641 9.6247082,4.9015826 10.495504,4.7352547 c 0.722582,-0.1380183 3.019393,-0.2594601 5.104024,-0.2698709 5.954727,-0.029737 9.806028,1.2635774 12.573647,4.2223867 l 1.501994,1.6057525 1.41312,-0.4922408 c 1.410333,-0.4912698 6.006702,-0.4693848 7.186086,0.034215 0.391844,0.1673187 0.62334,-0.098598 0.951524,-1.093003 0.475627,-1.4411665 1.919204,-3.0928907 3.349608,-3.8325807 2.341047,-1.2106017 5.684615,-0.8417854 7.597892,0.8380962 l 1.07683,0.9454671 2.285435,-1.1172573 C 57.46574,3.6549613 61.440015,3.4869766 65.061735,5.089035 67.164875,6.0193536 66.753544,6.1852945 64.357626,5.3730929 60.59333,4.0970198 55.615216,4.9902936 52.269511,7.5421879 L 51.172791,8.3786963 50.238732,7.403745 c -2.002213,-2.0898572 -5.304005,-2.4774011 -7.6201,-0.8943995 -1.226153,0.8380527 -2.398736,2.7644643 -2.398736,3.9408335 0,1.106081 -0.754963,1.326358 -2.507086,0.731496 -1.948868,-0.661657 -4.821576,-0.607932 -6.958601,0.130141 l -1.7472,0.603437 -0.759316,-1.202835 z"
     id="path2982"
     inkscape:connector-curvature="0" />
</svg>
